<?xml version="1.0" encoding="UTF-8" standalone="no"?>
<!-- Created with Inkscape (http://www.inkscape.org/) -->

<svg
   version="1.1"
   id="svg302"
   width="925.33331"
   height="592"
   viewBox="0 0 925.33331 592"
   sodipodi:docname="sbstr8.svg"
   inkscape:version="1.2.2 (b0a8486541, 2022-12-01)"
   xmlns:inkscape="http://www.inkscape.org/namespaces/inkscape"
   xmlns:sodipodi="http://sodipodi.sourceforge.net/DTD/sodipodi-0.dtd"
   xmlns="http://www.w3.org/2000/svg"
   xmlns:svg="http://www.w3.org/2000/svg">
  <defs
     id="defs306" />
  <sodipodi:namedview
     id="namedview304"
     pagecolor="#ffffff"
     bordercolor="#666666"
     borderopacity="1.0"
     inkscape:showpageshadow="2"
     inkscape:pageopacity="0.0"
     inkscape:pagecheckerboard="0"
     inkscape:deskcolor="#d1d1d1"
     showgrid="false"
     inkscape:zoom="1.1098703"
     inkscape:cx="464.91917"
     inkscape:cy="288.32197"
     inkscape:window-width="3840"
     inkscape:window-height="2059"
     inkscape:window-x="0"
     inkscape:window-y="32"
     inkscape:window-maximized="1"
     inkscape:current-layer="g308" />
  <g
     inkscape:groupmode="layer"
     inkscape:label="Image"
     id="g308">
    <path
       style="fill:#000000;stroke-width:1.33333"
       d="m 118.96898,587.49037 c -12.42544,-6.81006 -50.049326,-41.32874 -56.808164,-52.11969 -1.72921,-2.7608 -5.757974,-10.11964 -8.952807,-16.35297 -3.194835,-6.23333 -9.655197,-17.2544 -14.356363,-24.49125 -5.051356,-7.77592 -10.217336,-17.86535 -12.629836,-24.66667 -3.8019,-10.71837 -4.08452,-12.79068 -4.11535,-30.17541 -0.0391,-22.01278 1.71908,-29.17436 12.993635,-52.92818 8.400803,-17.69925 12.213838,-22.97197 22.196684,-30.69388 14.948605,-11.563 30.324462,-25.32554 38.515498,-34.47424 4.625893,-5.16674 13.141023,-12.70869 18.922513,-16.75988 5.78149,-4.0512 10.51179,-7.81481 10.51179,-8.3636 0,-0.54878 -2.85,-2.85514 -6.33333,-5.12525 C 109.00087,284.8794 84.837229,265.0978 79.965743,259.45491 77.542364,256.64778 70.089172,248.5576 63.403094,241.47675 46.686064,223.77264 43.516645,219.40036 33.59153,200.35104 26.515,186.76903 19.61295,174.35984 18.42567,173.08438 c -0.6485,-0.69667 -1.17909,-2.68983 -1.17909,-4.42924 0,-1.73942 -1.58822,-5.87268 -3.52938,-9.18503 -3.47606,-5.93145 -3.51555,-6.27753 -2.61371,-22.90409 0.50363,-9.2849 1.24525,-20.21468 1.64806,-24.28838 0.65159,-6.58979 0.27808,-8.17721 -3.3862901,-14.392007 -4.45132,-7.54945 -5.12814,-13.18923 -2.59676,-21.63821 1.54249,-5.14837 8.8752101,-15.27703 10.1424801,-14.00976 0.37977,0.37977 -1.16411,2.80276 -3.43084,5.38443 -4.6071501,5.24725 -7.3945501,13.62846 -6.1636101,18.53289 0.44686,1.78045 2.47111,4.82626 4.4983301,6.76845 4.16641,3.99169 5.27956,3.35231 7.94961,-4.56618 4.29939,-12.75059 23.87215,-37.00716 39.482117,-48.93029 6.202911,-4.73788 27.874682,-17.18232 41.333333,-23.73457 11.01029,-5.36028 19.89963,-6.1005896 41.84578,-3.48496 13.08722,1.55979 19.36935,3.77718 21.8503,7.71245 0.56618,0.89807 1.79764,2.41248 2.73656,3.36534 5.59389,5.67696 7.40172,24.52965 3.6598,38.1659 -1.28566,4.68516 -2.70363,6.43567 -7.56031,9.33333 -3.28781,1.96163 -13.00256,8.22918 -21.58832,13.9279 -22.58366,14.9897 -46.521536,23.476587 -77.522242,27.484597 l -16.66124,2.15409 -1.282999,4.48428 c -2.045276,7.14854 0.928959,15.93412 12.605757,37.23611 3.794658,6.9226 21.347445,23.85443 47.349344,45.67427 7.38784,6.19961 23.87602,20.27201 36.64041,31.27201 12.76438,11 24.87236,21.40551 26.90662,23.12335 l 3.69866,3.12333 5.66093,-3.32979 c 3.11352,-1.83138 7.11553,-4.88689 8.89336,-6.79001 1.77784,-1.90312 3.72168,-3.46021 4.31967,-3.46021 0.59797,0 5.80216,-3.92886 11.56485,-8.73078 l 10.47761,-8.73078 0.81509,-17.60255 c 0.96247,-20.78544 4.71946,-43.94175 10.42732,-64.26923 6.432,-22.90634 15.71437,-41.34541 33.35012,-66.248717 5.03044,-7.10346 9.14627,-13.39485 9.14627,-13.98086 0,-0.58601 1.5981,-4.22409 3.55136,-8.08461 3.20849,-6.34148 3.97754,-7.01914 7.96576,-7.01914 5.83158,0 7.34682,3.12646 10.98544,22.66667 4.17185,22.4038 4.06616,35.046957 -0.42914,51.333327 -2.02412,7.33333 -5.725,20.83333 -8.22417,30 -6.37396,23.37884 -18.65859,48.30657 -33.28043,67.53201 -4.05341,5.32962 -4.16436,5.81748 -3.03209,13.33334 0.64639,4.29073 2.40344,11.92082 3.90455,16.95577 l 2.7293,9.15445 2.6007,-4.85233 c 1.43037,-2.66877 3.80178,-10.00351 5.2698,-16.29941 3.9469,-16.9272 9.86708,-30.1616 15.951,-35.65806 6.2201,-5.61948 12.36164,-6.89886 32.00792,-6.66774 22.16966,0.2608 35.81051,6.9341 40.78173,19.95104 1.94325,5.08834 2.16025,8.8473 1.43956,24.93786 -0.46674,10.42052 -1.49586,21.3464 -2.28694,24.27974 -0.79109,2.93333 -2.2,8.63333 -3.13092,12.66666 -0.93092,4.03334 -2.78456,9.43334 -4.1192,12 -2.04928,3.94099 -11.55622,16.489 -14.14273,18.66667 -0.4355,0.36667 -3.6327,4.56667 -7.10489,9.33333 -7.58928,10.41867 -17.65012,20 -21.00092,20 -1.33963,0 -2.43569,0.6 -2.43569,1.33334 0,1.81994 -19.43928,1.70697 -28.26771,-0.16428 -3.88609,-0.82368 -9.46563,-2.68871 -12.39896,-4.14448 -6.67549,-3.31298 -19.88349,-17.11082 -20.34684,-21.2555 -0.19076,-1.70633 -1.54076,-5.91364 -3,-9.34958 -1.45924,-3.43595 -2.6612,-7.33595 -2.67101,-8.66667 -0.016,-2.16925 -5.16784,-17.68473 -9.13335,-27.50629 -0.83352,-2.0644 -1.52466,-4.4644 -1.53589,-5.33334 -0.0107,-0.86892 -0.56348,-2.43801 -1.22721,-3.48685 -1.20198,-1.89936 -6.44603,1.45659 -19.41904,12.42728 l -4,3.38263 10.66874,10.38186 c 10.8685,10.57624 24.66459,26.09895 24.66459,27.7514 0,0.50238 1.672,3.09975 3.71555,5.77195 2.04356,2.67219 4.89357,7.16671 6.33334,9.98783 1.43979,2.8211 4.09779,6.7211 5.90668,8.66666 4.08141,4.38976 8.87443,14.34075 18.08032,37.53738 9.42516,23.7491 13.47867,41.27732 15.26291,66 1.75548,24.32406 1.28434,31.73565 -2.62747,41.33333 -0.59779,1.46667 -2.68533,7.16667 -4.639,12.66667 -4.15805,11.70586 -8.3574,18.85336 -20.9072,35.58502 -13.60527,18.13884 -26.6432,29.53579 -43.09526,37.67127 -8.62411,4.26459 -15.37279,6.74371 -18.35772,6.74371 -2.84847,0 -5.0084,0.75109 -5.44703,1.89412 -0.39976,1.04177 -1.78458,1.73889 -3.0774,1.54914 -1.2928,-0.18974 -8.07992,1.71728 -15.08246,4.23783 -10.22688,3.6812 -15.3553,4.7154 -26.06526,5.2568 -12.77208,0.6456 -13.62564,0.5138 -20.2776,-3.1319 z m 55.30974,-66.70962 c 23.50522,-16.80369 31.51046,-26.82421 36.2043,-45.31852 3.47823,-13.70468 3.54211,-28.45285 0.18392,-42.45885 -1.40853,-5.87455 -3.53335,-16.28546 -4.72183,-23.13535 -4.3423,-25.02731 -12.72893,-43.88619 -26.29938,-59.13909 -9.46696,-10.64067 -17.06581,-20.19434 -17.06581,-21.45602 0,-0.61985 -1.81492,-2.94193 -4.03318,-5.16017 -3.4677,-3.46772 -4.3338,-3.78367 -6.17752,-2.25352 -4.53052,3.76001 -33.53279,41.08977 -41.29992,53.15848 -17.286495,26.86008 -20.361403,37.28393 -17.933284,60.79335 0.750212,7.26366 2.545029,17.80809 3.988484,23.43209 4.75028,18.50805 10.643,27.61589 31.91831,49.33325 11.92811,12.17596 16.72353,16.14315 22.05621,18.24686 3.74783,1.47849 7.71423,2.71276 8.81423,2.74281 1.1,0.03 7.56447,-3.92335 14.36547,-8.78532 z M 288.10884,290.73822 c 13.48858,-6.17528 27.46896,-23.99852 32.45754,-41.37935 1.20902,-4.21236 1.82402,-8.83779 1.36669,-10.27873 -1.81992,-5.73408 -16.97557,-14.7291 -24.81697,-14.7291 -4.51524,0 -10.43232,5.94359 -16.32512,16.39827 -2.14992,3.81428 -5.61606,9.93507 -7.70252,13.60173 -2.08646,3.66667 -3.80443,7.94855 -3.81771,9.51528 -0.02,2.36139 -1.08235,3.0073 -6.211,3.77638 -4.51967,0.67777 -6.49028,0.44909 -7.31291,-0.8486 -0.89244,-1.40782 -1.13032,-1.34679 -1.1465,0.29414 -0.0289,2.93532 9.80005,22.89279 12.70561,25.79836 3.16173,3.16172 10.96415,2.35595 20.80289,-2.14838 z M 250.00071,190.70475 c 13.50103,-19.59129 29.8876,-98.353707 20.46256,-98.353707 -0.64059,0 -2.90571,3.75 -5.03363,8.333337 -12.37893,26.66306 -22.79509,68.36844 -22.83878,91.44444 -0.0136,7.18837 1.70193,6.85866 7.40985,-1.42407 z M 77.246587,96.155433 c 6.233333,-1.51264 13.733333,-3.86558 16.666666,-5.22875 2.933333,-1.36317 8.633337,-3.97604 12.666667,-5.80638 4.03333,-1.83034 10.33333,-5.16586 14,-7.41227 3.66666,-2.24641 7.56666,-4.41452 8.66666,-4.81802 1.1,-0.40349 3.2,-1.38351 4.66667,-2.1778 1.46667,-0.7943 3.56667,-1.85276 4.66667,-2.35214 10.8945,-4.94594 12.7682,-6.42741 16.87478,-13.34236 7.7991,-13.13264 7.58067,-20.56271 -0.76692,-26.08688 -5.02106,-3.32278 -5.48484,-3.3823 -15.50088,-1.9892 -12.46243,1.73337 -25.03548,4.89128 -30.54786,7.67257 -4.63729,2.33976 -23.705612,16.73186 -28.790509,21.73006 -2.832218,2.78393 -8.473845,9.57241 -15.268611,18.37249 -0.733333,0.94976 -1.953593,2.45601 -2.711689,3.34723 -3.039549,3.57329 -8.35153,13.8669 -9.208682,17.84467 l -0.910271,4.224277 7.081988,-0.613617 c 3.895093,-0.33749 12.181988,-1.85124 18.415321,-3.36388 z M 759.91324,587.46027 c -1.1,-0.4451 -5.25128,-2.00773 -9.22508,-3.47257 -3.9738,-1.46484 -9.6738,-4.88027 -12.66666,-7.58984 -2.99287,-2.70959 -14.03963,-11.11112 -24.54833,-18.6701 -10.50871,-7.55898 -22.14084,-16.81105 -25.84918,-20.56016 -6.05129,-6.11781 -9.43853,-10.3447 -20.92764,-26.11529 -9.15877,-12.57187 -16.7831,-48.62757 -16.7831,-79.36793 0,-16.08142 0.25788,-17.86299 3.57053,-24.66667 1.96379,-4.03333 5.02391,-10.63333 6.80025,-14.66667 1.77636,-4.03333 7.39614,-13.93333 12.48839,-22 5.09227,-8.06666 11.57536,-18.86666 14.40689,-24 6.67876,-12.10806 10.68298,-17.26325 25.5847,-32.93878 6.76504,-7.11634 14.72346,-16.5074 17.68538,-20.86903 l 5.38532,-7.93023 -7.47313,-6.15229 c -4.11021,-3.38376 -9.12584,-8.69271 -11.14581,-11.79765 -2.01998,-3.10494 -6.4299,-8.58894 -9.79982,-12.18666 -3.36993,-3.5977 -8.6069,-10.34738 -11.63773,-14.99928 -3.03083,-4.65188 -7.72591,-10.70829 -10.43352,-13.45869 -2.70761,-2.7504 -5.74688,-7.10072 -6.75392,-9.66739 -1.00705,-2.56666 -2.92147,-6.09758 -4.25427,-7.84648 -1.3328,-1.74889 -2.42326,-3.72318 -2.42326,-4.38732 0,-0.66413 -1.17279,-2.83321 -2.6062,-4.82018 -2.41592,-3.3489 -9.18438,-26.86612 -12.1526,-42.22463 -2.58019,-13.35065 5.67902,-48.25433 16.41626,-69.375607 3.62126,-7.12337 41.01447,-45.07061 50.5875,-51.337 4.16805,-2.72836 11.06805,-6.29106 15.33333,-7.9171 16.28624,-6.20879 19.1603,-7.93818 21.16465,-12.73525 2.61516,-6.2589496 2.50819,-6.8150896 -2.10075,-10.9216696 -6.1434,-5.47380004 -2.72953,-6.53655 5.46899,-1.70253 8.34672,4.9214 11.85319,8.5720996 11.97905,12.4717896 0.0889,2.75478 0.10974,2.75668 1.41158,0.12932 0.88756,-1.79122 5.29536,-3.97984 13.42642,-6.6666696 10.70504,-3.53737 13.81874,-3.98398 26.92175,-3.86151 8.14917,0.0762 18.52968,1.0373 23.06779,2.13584 15.93757,3.8580196 40.53491,20.6902596 52.68693,36.0542496 3.62721,4.58595 8.10009,10.10685 9.93972,12.26867 5.24645,6.16529 9.43785,15.4528 13.6907,30.33649 5.60862,19.628477 6.8439,27.733107 5.4863,35.995397 -2.178,13.25523 -6.52851,33.72865 -7.97514,37.53083 -2.54578,6.69112 -12.34286,22.54831 -17.37888,28.1288 -2.6858,2.97618 -8.24924,10.21123 -12.36321,16.0779 -9.70444,13.83888 -25.44606,29.09813 -39.67086,38.45521 -9.73588,6.40428 -32,26.05575 -32,28.24485 0,0.40346 6.6,7.20918 14.66666,15.12383 8.06667,7.91465 14.66667,14.84325 14.66667,15.39688 0,1.17453 10.23016,12.88165 27.7998,31.81339 16.51237,17.79249 21.0301,24.07077 30.4377,42.29917 9.19956,17.82531 13.01558,27.62095 16.42875,42.17231 1.35385,5.77189 3.7078,14.68137 5.23099,19.79884 8.76505,29.44801 -3.10622,69.48605 -29.26318,98.69552 -20.37596,22.75381 -24.40254,25.74686 -51.30073,38.13305 -14.32172,6.59493 -23.56272,9.91868 -34.46485,12.39611 -7.27072,1.65223 -44.14297,2.61933 -47.53515,1.24673 z m 43.00435,-64.43399 c 11.20101,-4.19082 16.84347,-10.98729 28.26669,-34.04781 9.98484,-20.15679 6.14298,-55.11457 -9.51076,-86.54001 -3.99424,-8.01859 -8.32374,-16.11859 -9.62112,-18 -1.29738,-1.88142 -5.26793,-8.82075 -8.82346,-15.42075 -3.55552,-6.6 -8.45608,-15.12117 -10.89014,-18.93595 -2.43405,-3.81477 -4.42556,-7.50142 -4.42556,-8.19254 0,-2.07375 -16.33252,-21.53818 -18.0726,-21.53818 -4.9937,0 -13.35256,13.51851 -23.49642,38 -10.94784,26.4218 -11.50927,28.19902 -20.00752,63.33334 -3.93923,16.28593 -3.92985,37.16868 0.0204,45.33333 3.72513,7.69945 19.01085,28.34877 23.09105,31.19347 1.72249,1.20092 9.61944,6.9873 17.54876,12.85864 20.96283,15.52209 23.83529,16.47821 35.92073,11.95646 z m 6.09071,-309.37212 c 13.09654,-7.20441 25.66297,-17.54804 32.23828,-26.53585 3.3,-4.51077 8.234,-10.72873 10.96445,-13.81768 13.42712,-15.19003 23.82808,-45.04293 25.91937,-74.393937 0.74643,-10.47606 0.44476,-12.61947 -3.56556,-25.33333 -4.67089,-14.8081 -10.8788,-26.03881 -16.62592,-30.07789 -1.93905,-1.36277 -5.15585,-3.76983 -7.14844,-5.34904 -4.50149,-3.56759 -8.4699,-3.05599 -20.21057,2.60552 -6.61724,3.19092 -10.87373,4.28107 -18,4.61006 -5.13333,0.23699 -10.23333,-0.17847 -11.33333,-0.92324 -1.77504,-1.20181 -1.7696,-1.7703 0.0484,-5.05426 1.12664,-2.03507 3.67181,-4.48056 5.65593,-5.43441 3.95049,-1.89917 6.88424,-6.23464 5.61193,-8.29328 -1.04054,-1.68363 -18.64129,-1.69562 -24.49541,-0.0167 -4.48792,1.28712 -9.02643,0.0427 -11.02347,-3.02248 -0.47808,-0.7338 -2.36116,1.90603 -4.18464,5.86627 -5.24584,11.39297 -17.5756,26.87932 -26.55033,33.34757 -3.44899,2.48575 -6.29899,4.96954 -6.33333,5.51954 -0.0344,0.55 -0.94135,1 -2.01555,1 -1.0742,0 -2.59531,1.2 -3.38024,2.66667 -0.78493,1.46666 -2.03167,2.66666 -2.77051,2.66666 -2.81679,0 -16.10183,11.03064 -22.4005,18.59926 -9.72452,11.685187 -12.25892,19.684037 -13.13987,41.470897 -0.83153,20.56467 -0.54052,21.6233 10.42668,37.92984 6.24715,9.28854 26.76044,30.47612 38.94099,40.221 3.51457,2.81179 9.83497,8.11234 14.04534,11.779 4.21039,3.66667 10.20746,8.868 13.32683,11.55851 l 5.67159,4.89185 10.94972,-10.92205 c 6.36366,-6.34757 14.47978,-12.86395 19.37812,-15.55852 z M 374.22588,430.90031 c -8.08708,-1.90529 -15.55088,-6.33671 -18.42008,-10.93639 -2.33967,-3.75077 -2.62151,-6.17409 -2.28103,-19.61288 l 0.38848,-15.33333 6.87303,-10 c 4.42476,-6.43787 7.94865,-13.56213 9.89263,-20 3.2276,-10.68885 7.92164,-16.63353 14.38997,-18.22391 6.12697,-1.50645 14.84437,-5.63112 14.84437,-7.02366 0,-0.73828 -4.05,-2.57414 -9,-4.07967 -13.951,-4.24317 -24.33292,-10.54375 -29.20368,-17.72311 -4.15073,-6.11808 -8.67225,-18.28838 -10.35778,-27.87948 -1.32006,-7.5114 2.74536,-29.84505 7.1538,-39.29984 2.11046,-4.52632 3.49056,-8.57632 3.06688,-9 -0.42368,-0.42368 -0.1328,-0.77033 0.64624,-0.77033 0.7791,0 3.38165,-3.15 5.78342,-7 10.8045,-17.31936 18.80711,-22.41569 37.17255,-23.67273 18.29936,-1.25251 21.49945,0.80325 26.89195,17.2756 1.57193,4.80176 3.68049,9.6777 4.68568,10.83545 1.00518,1.15775 1.82761,2.71475 1.82761,3.46001 0,0.74527 1.2,2.44102 2.66667,3.76834 1.46666,1.32732 2.66666,2.88301 2.66666,3.45712 0,1.85598 -5.92157,0.81749 -8.66666,-1.51992 -4.16291,-3.54466 -7.2497,-4.78155 -18,-7.21268 l -10,-2.26146 -4.47332,5.1018 c -2.46034,2.80599 -6.74304,8.4018 -9.51715,12.43514 -2.77409,4.03333 -6.91111,9.66584 -9.19335,12.51666 -4.8107,6.00927 -5.34429,11.5117 -1.6954,17.48334 2.81586,4.6083 3.70358,5.1003 28.05715,15.54997 3.21453,1.37929 8.20965,4.38095 11.10025,6.67036 l 5.25564,4.16255 9.61126,-9.85811 c 8.45266,-8.66977 10.21188,-11.38613 14.59394,-22.53419 2.74048,-6.97185 6.02031,-14.24301 7.28851,-16.15814 3.50333,-5.29051 11.64565,-13.96048 13.93636,-14.83951 1.333,-0.51152 2.35765,-3.46421 2.96832,-8.55372 0.869,-7.24248 3.12081,-15.43991 12.84854,-46.77345 2.92419,-9.41896 3.71207,-14.24374 3.33343,-20.41306 -0.27271,-4.44334 -0.82079,-8.40374 -1.21795,-8.8009 -1.00794,-1.00796 -19.89046,2.2476 -21.76084,3.75181 -0.8422,0.67732 -3.54219,1.15463 -5.99999,1.06069 -2.4578,-0.094 -13.76874,-0.0988 -25.1354,-0.0107 -22.34156,0.17294 -32.29928,-1.53546 -33.09712,-5.67831 -0.24487,-1.27151 0.72646,-3.34608 2.15852,-4.61017 1.43205,-1.2641 4.24102,-6.49835 6.24216,-11.63168 3.0244,-7.75825 3.47866,-10.4584 2.69178,-16 -1.94506,-13.69812 -2.07328,-13.34179 4.77243,-13.2641 3.35561,0.0381 9.13404,1.37398 12.84096,2.96865 10.96241,4.7159 27.94231,6.8053 49.05793,6.03663 10.26667,-0.37373 18.86995,-0.87167 19.1184,-1.10653 0.38311,-0.36213 1.72719,-5.66371 3.54124,-13.96799 0.24029,-1.1 1.08324,-3.670807 1.87321,-5.712907 0.78998,-2.04211 1.34051,-4.14211 1.22342,-4.66667 -0.11707,-0.52456 0.26433,-3.84625 0.84764,-7.38153 2.06433,-12.51167 10.11581,-17.42478 23.35177,-14.24952 12.18771,2.92379 16.27709,12.30429 11.3392,26.01063 -2.92044,8.106447 -2.58028,9.999997 1.79645,9.999997 11.35075,0 50.31786,-18.115267 78.90867,-36.683557 4.76666,-3.0957 15.66086,-9.05346 24.20933,-13.23946 14.21813,-6.96231 16.05767,-7.53367 21.58608,-6.70463 7.95161,1.19242 10.34224,4.01893 10.40641,12.30382 0.0477,6.1657 -3.02228,14.96608 -5.23606,15.0094 -0.53118,0.0104 -4.37463,3.16039 -8.54103,7 -11.52795,10.62359 -34.02069,26.066377 -46.42473,31.873547 -3.3,1.54495 -13.22426,6.29859 -22.0539,10.56364 -8.82965,4.26506 -23.22965,9.89471 -31.99999,12.51034 -22.91122,6.83292 -27.56552,8.69806 -26.78447,10.73344 0.36848,0.96028 -0.10053,2.04164 -1.04228,2.40302 -0.94176,0.36138 -3.12732,4.16103 -4.85683,8.44368 -1.72949,4.28264 -7.55729,16.48662 -12.95066,27.11995 -7.66919,15.12023 -10.34023,21.94836 -12.25704,31.33333 -3.9284,19.23392 -4.39504,25.23091 -3.38136,43.45552 1.127,20.26212 1.88582,20.9587 11.85002,10.87782 6.82128,-6.90116 12.63098,-17.82259 16.13592,-30.33334 2.03664,-7.26972 15.6051,-30.34653 19.97539,-33.97356 1.223,-1.015 4.04341,0.567 10.61671,5.95502 10.36376,8.495 11.1122,8.42126 18.6421,-1.83654 6.09543,-8.30362 11.80084,-10.69852 16.75733,-7.03404 3.6591,2.7053 7.79091,2.04587 12.20372,-1.94769 4.14124,-3.74776 9.33307,-1.78592 13.60508,5.14096 3.5955,5.82993 3.75571,6.62341 2.12995,10.54835 -0.96691,2.33432 -3.86241,7.29745 -6.43448,11.02918 -5.58059,8.09676 -15.38225,31.10208 -18.79708,44.11832 -1.34673,5.13334 -5.2293,15.83883 -8.62793,23.78999 -8.58632,20.08784 -10.8452,34.17176 -7.12901,44.44868 3.0451,8.42111 9.6954,6.27279 50.39881,-16.28093 10.11506,-5.60476 19.20942,-11.76382 23.13521,-15.6681 3.55771,-3.5382 7.44264,-6.24549 8.63319,-6.01622 9.59942,1.84869 5.09326,30.2059 -6.92147,43.55678 -2.80095,3.11243 -15.21595,12.89343 -19.67811,15.50314 -1.25386,0.73333 -7.99524,6.82362 -14.98081,13.534 -14.02053,13.46817 -20.75695,16.84694 -33.58845,16.84694 -5.64896,0 -8.07936,-0.81202 -13.41581,-4.48236 -9.26902,-6.3751 -14.84704,-12.70282 -19.30414,-21.89858 -6.88629,-14.20767 -5.09714,-34.00859 5.54608,-61.37988 3.12675,-8.04107 6.48508,-15.80363 7.46299,-17.25014 0.97789,-1.44649 1.77799,-3.64788 1.77799,-4.89194 0,-1.24407 0.82924,-3.96056 1.84277,-6.03666 2.25605,-4.62128 8.92057,-25.7888 8.86451,-28.15496 -0.0863,-3.64145 -5.00367,1.02598 -7.23416,6.86646 -2.48666,6.5112 -3.02142,6.88276 -11.80046,8.19926 -6.4276,0.96388 -6.21065,0.67634 -13.56674,17.98119 -1.09107,2.56667 -3.78371,7.66667 -5.98366,11.33333 -2.19994,3.66671 -6.86385,12.36671 -10.36424,19.33338 -5.16754,10.28477 -8.52168,14.84124 -17.83686,24.23084 -9.01091,9.08286 -12.54388,11.76514 -16.46555,12.50085 -9.66621,1.8134 -15.31253,-4.09269 -21.4112,-22.39631 -5.00383,-15.01773 -7.35812,-33.38896 -7.39031,-57.66872 -0.0156,-11.73333 -0.56281,-22.17769 -1.21614,-23.20969 -1.30644,-2.06365 -6.1713,6.68073 -12.54159,22.54303 -6.71813,16.72845 -16.12474,31.31157 -23.93906,37.11285 -2.2492,1.66979 -2.11922,2.08703 2.10769,6.76571 7.54435,8.35068 15.57136,19.82966 18.27171,26.12932 4.35912,10.16941 5.91416,26.40006 3.5761,37.32545 -3.45196,16.13049 -7.39037,24.70179 -14.79672,32.20261 -16.47052,16.68059 -49.09217,26.71658 -70.47013,21.67999 z m 35.13171,-30.8826 c 10.52378,-5.37419 17.9407,-12.58164 19.80614,-19.24676 1.99263,-7.11961 3.27552,-22.14265 2.24238,-26.25903 -1.20228,-4.79025 -7.673,-11.80956 -15.54076,-16.85829 -6.36907,-4.08701 -6.77688,-4.17235 -9.96316,-2.08461 -1.82724,1.19725 -3.32227,3.09841 -3.32227,4.22478 0,1.12638 -0.6,1.67714 -1.33333,1.22391 -0.73334,-0.45323 -1.33334,-0.18864 -1.33334,0.58797 0,0.77662 -0.79344,1.41203 -1.76321,1.41203 -0.96976,0 -5.16976,3.69289 -9.33333,8.20643 l -7.57012,8.20642 v 9.76314 c 0,15.73673 7.53166,32.74022 15.16569,34.23808 1.55887,0.30586 3.20003,0.63782 3.64703,0.73769 0.44698,0.0999 4.63121,-1.76843 9.29828,-4.15176 z M 522.50801,170.48222 c 4.93213,-11.3966 6.46037,-16.27604 5.42261,-17.3138 -2.66876,-2.66876 -8.2387,1.95188 -10.26554,8.51596 -4.79584,15.53173 -6.4323,29.37576 -3.04455,25.75629 0.56093,-0.59929 4.11029,-8.2306 7.88748,-16.95845 z"
       id="path420" />
  </g>
</svg>
